# xmcd
#
# Track frame offsets:
# 150
# 16845
# 30272
# 49212
# 63627
# 81035
# 95645
# 113987
# 127467
# 145000
# 162057
# 176487
# 192855
# 211307
#
# Disc length: 3059 seconds
#
#
# Revision: 3
# Processed by: cddbd v1.5.1PL0 Copyright (c) Steve Scherf et al.
# Submitted via: FreeRIP 2.942 
#
DISCID=be0bf10e
DTITLE=Chitãozinho and Xororó - Inseparáveis
DYEAR=1900
DGENRE=Country
TTITLE0=Um sonho de amor
TTITLE1=Coração de cowboy
TTITLE2=Frio da solidão
TTITLE3=Vem ni mim
TTITLE4=Causa perdida
TTITLE5=Galinhada
TTITLE6=E agora?
TTITLE7=100% adrenalina
TTITLE8=Meu café da manhã
TTITLE9=Menina linda
TTITLE10=Que amor é esse
TTITLE11=O que passou, passou
TTITLE12=Passando o tempo
TTITLE13=Inseparáveis
EXTD=
EXTT0=
EXTT1=
EXTT2=
EXTT3=
EXTT4=
EXTT5=
EXTT6=
EXTT7=
EXTT8=
EXTT9=
EXTT10=
EXTT11=
EXTT12=
EXTT13=
PLAYORDER=
